ISO-10303-21;
HEADER;
/* Generated by software containing ST-Developer
 * from STEP Tools, Inc. (www.steptools.com) 
 */

FILE_DESCRIPTION(
/* description */ (''),
/* implementation_level */ '2;1');

FILE_NAME(
/* name */ 'battery_LP402535 v1.step',
/* time_stamp */ '2025-07-02T11:37:05-07:00',
/* author */ (''),
/* organization */ (''),
/* preprocessor_version */ 'ST-DEVELOPER v20.1',
/* originating_system */ 'Autodesk Translation Framework v14.10.0.0',
/* authorisation */ '');

FILE_SCHEMA (('AUTOMOTIVE_DESIGN { 1 0 10303 214 3 1 1 }'));
ENDSEC;

DATA;
#10=MECHANICAL_DESIGN_GEOMETRIC_PRESENTATION_REPRESENTATION('',(#13),#771);
#11=SHAPE_REPRESENTATION_RELATIONSHIP('SRR','None',#778,#12);
#12=ADVANCED_BREP_SHAPE_REPRESENTATION('',(#14),#770);
#13=STYLED_ITEM('',(#788),#14);
#14=MANIFOLD_SOLID_BREP('Body1',#399);
#15=PLANE('',#435);
#16=PLANE('',#438);
#17=PLANE('',#439);
#18=PLANE('',#458);
#19=PLANE('',#460);
#20=PLANE('',#462);
#21=(
BOUNDED_SURFACE()
B_SPLINE_SURFACE(2,2,((#599,#600,#601),(#602,#603,#604),(#605,#606,#607)),
 .UNSPECIFIED.,.F.,.F.,.F.)
B_SPLINE_SURFACE_WITH_KNOTS((3,3),(3,3),(-1.5707963267949,0.),(-3.14159265358979,
-1.5707963267949),.UNSPECIFIED.)
GEOMETRIC_REPRESENTATION_ITEM()
RATIONAL_B_SPLINE_SURFACE(((1.,0.707106781186548,1.),(0.70710678118655,
0.500000000000002,0.70710678118655),(1.,0.707106781186548,1.)))
REPRESENTATION_ITEM('')
SURFACE()
);
#22=(
BOUNDED_SURFACE()
B_SPLINE_SURFACE(2,2,((#619,#620,#621),(#622,#623,#624),(#625,#626,#627)),
 .UNSPECIFIED.,.F.,.F.,.F.)
B_SPLINE_SURFACE_WITH_KNOTS((3,3),(3,3),(-1.5707963267949,0.),(-1.5707963267949,
0.),.UNSPECIFIED.)
GEOMETRIC_REPRESENTATION_ITEM()
RATIONAL_B_SPLINE_SURFACE(((1.,0.707106781186548,1.),(0.707106781186547,
0.5,0.707106781186547),(1.,0.707106781186548,1.)))
REPRESENTATION_ITEM('')
SURFACE()
);
#23=(
BOUNDED_SURFACE()
B_SPLINE_SURFACE(2,2,((#639,#640,#641),(#642,#643,#644),(#645,#646,#647)),
 .UNSPECIFIED.,.F.,.F.,.F.)
B_SPLINE_SURFACE_WITH_KNOTS((3,3),(3,3),(-1.5707963267949,0.),(0.,1.5707963267949),
 .UNSPECIFIED.)
GEOMETRIC_REPRESENTATION_ITEM()
RATIONAL_B_SPLINE_SURFACE(((1.,0.707106781186548,1.),(0.707106781186546,
0.499999999999999,0.707106781186546),(1.,0.707106781186548,1.)))
REPRESENTATION_ITEM('')
SURFACE()
);
#24=(
BOUNDED_SURFACE()
B_SPLINE_SURFACE(2,2,((#659,#660,#661),(#662,#663,#664),(#665,#666,#667)),
 .UNSPECIFIED.,.F.,.F.,.F.)
B_SPLINE_SURFACE_WITH_KNOTS((3,3),(3,3),(-1.5707963267949,0.),(1.5707963267949,
3.14159265358979),.UNSPECIFIED.)
GEOMETRIC_REPRESENTATION_ITEM()
RATIONAL_B_SPLINE_SURFACE(((1.,0.707106781186548,1.),(0.70710678118655,
0.500000000000002,0.70710678118655),(1.,0.707106781186548,1.)))
REPRESENTATION_ITEM('')
SURFACE()
);
#25=(
BOUNDED_SURFACE()
B_SPLINE_SURFACE(2,2,((#689,#690,#691),(#692,#693,#694),(#695,#696,#697)),
 .UNSPECIFIED.,.F.,.F.,.F.)
B_SPLINE_SURFACE_WITH_KNOTS((3,3),(3,3),(-1.5707963267949,0.),(0.,1.5707963267949),
 .UNSPECIFIED.)
GEOMETRIC_REPRESENTATION_ITEM()
RATIONAL_B_SPLINE_SURFACE(((1.,0.707106781186548,1.),(0.707106781186552,
0.500000000000003,0.707106781186552),(1.,0.707106781186548,1.)))
REPRESENTATION_ITEM('')
SURFACE()
);
#26=(
BOUNDED_SURFACE()
B_SPLINE_SURFACE(2,2,((#707,#708,#709),(#710,#711,#712),(#713,#714,#715)),
 .UNSPECIFIED.,.F.,.F.,.F.)
B_SPLINE_SURFACE_WITH_KNOTS((3,3),(3,3),(-1.5707963267949,0.),(1.5707963267949,
3.14159265358979),.UNSPECIFIED.)
GEOMETRIC_REPRESENTATION_ITEM()
RATIONAL_B_SPLINE_SURFACE(((1.,0.707106781186548,1.),(0.707106781186548,
0.500000000000001,0.707106781186548),(1.,0.707106781186548,1.)))
REPRESENTATION_ITEM('')
SURFACE()
);
#27=(
BOUNDED_SURFACE()
B_SPLINE_SURFACE(2,2,((#725,#726,#727),(#728,#729,#730),(#731,#732,#733)),
 .UNSPECIFIED.,.F.,.F.,.F.)
B_SPLINE_SURFACE_WITH_KNOTS((3,3),(3,3),(-1.5707963267949,0.),(-3.14159265358979,
-1.5707963267949),.UNSPECIFIED.)
GEOMETRIC_REPRESENTATION_ITEM()
RATIONAL_B_SPLINE_SURFACE(((1.,0.707106781186548,1.),(0.707106781186547,
0.5,0.707106781186547),(1.,0.707106781186548,1.)))
REPRESENTATION_ITEM('')
SURFACE()
);
#28=(
BOUNDED_SURFACE()
B_SPLINE_SURFACE(2,2,((#745,#746,#747),(#748,#749,#750),(#751,#752,#753)),
 .UNSPECIFIED.,.F.,.F.,.F.)
B_SPLINE_SURFACE_WITH_KNOTS((3,3),(3,3),(-1.5707963267949,0.),(-1.5707963267949,
0.),.UNSPECIFIED.)
GEOMETRIC_REPRESENTATION_ITEM()
RATIONAL_B_SPLINE_SURFACE(((1.,0.707106781186548,1.),(0.707106781186552,
0.500000000000003,0.707106781186552),(1.,0.707106781186548,1.)))
REPRESENTATION_ITEM('')
SURFACE()
);
#29=FACE_OUTER_BOUND('',#55,.T.);
#30=FACE_OUTER_BOUND('',#56,.T.);
#31=FACE_OUTER_BOUND('',#57,.T.);
#32=FACE_OUTER_BOUND('',#58,.T.);
#33=FACE_OUTER_BOUND('',#59,.T.);
#34=FACE_OUTER_BOUND('',#60,.T.);
#35=FACE_OUTER_BOUND('',#61,.T.);
#36=FACE_OUTER_BOUND('',#62,.T.);
#37=FACE_OUTER_BOUND('',#63,.T.);
#38=FACE_OUTER_BOUND('',#64,.T.);
#39=FACE_OUTER_BOUND('',#65,.T.);
#40=FACE_OUTER_BOUND('',#66,.T.);
#41=FACE_OUTER_BOUND('',#67,.T.);
#42=FACE_OUTER_BOUND('',#68,.T.);
#43=FACE_OUTER_BOUND('',#69,.T.);
#44=FACE_OUTER_BOUND('',#70,.T.);
#45=FACE_OUTER_BOUND('',#71,.T.);
#46=FACE_OUTER_BOUND('',#72,.T.);
#47=FACE_OUTER_BOUND('',#73,.T.);
#48=FACE_OUTER_BOUND('',#74,.T.);
#49=FACE_OUTER_BOUND('',#75,.T.);
#50=FACE_OUTER_BOUND('',#76,.T.);
#51=FACE_OUTER_BOUND('',#77,.T.);
#52=FACE_OUTER_BOUND('',#78,.T.);
#53=FACE_OUTER_BOUND('',#79,.T.);
#54=FACE_OUTER_BOUND('',#80,.T.);
#55=EDGE_LOOP('',(#249,#250,#251,#252));
#56=EDGE_LOOP('',(#253,#254,#255,#256));
#57=EDGE_LOOP('',(#257,#258,#259,#260));
#58=EDGE_LOOP('',(#261,#262,#263,#264));
#59=EDGE_LOOP('',(#265,#266,#267,#268));
#60=EDGE_LOOP('',(#269,#270,#271,#272));
#61=EDGE_LOOP('',(#273,#274,#275,#276));
#62=EDGE_LOOP('',(#277,#278,#279,#280));
#63=EDGE_LOOP('',(#281,#282,#283,#284));
#64=EDGE_LOOP('',(#285,#286,#287,#288));
#65=EDGE_LOOP('',(#289,#290,#291,#292));
#66=EDGE_LOOP('',(#293,#294,#295,#296));
#67=EDGE_LOOP('',(#297,#298,#299,#300,#301,#302,#303,#304));
#68=EDGE_LOOP('',(#305,#306,#307,#308));
#69=EDGE_LOOP('',(#309,#310,#311,#312));
#70=EDGE_LOOP('',(#313,#314,#315,#316));
#71=EDGE_LOOP('',(#317,#318,#319,#320));
#72=EDGE_LOOP('',(#321,#322,#323,#324));
#73=EDGE_LOOP('',(#325,#326,#327,#328));
#74=EDGE_LOOP('',(#329,#330,#331,#332));
#75=EDGE_LOOP('',(#333,#334,#335,#336));
#76=EDGE_LOOP('',(#337,#338,#339,#340));
#77=EDGE_LOOP('',(#341,#342,#343,#344));
#78=EDGE_LOOP('',(#345,#346,#347,#348,#349,#350,#351,#352));
#79=EDGE_LOOP('',(#353,#354,#355,#356));
#80=EDGE_LOOP('',(#357,#358,#359,#360));
#81=LINE('',#595,#105);
#82=LINE('',#598,#106);
#83=LINE('',#617,#107);
#84=LINE('',#618,#108);
#85=LINE('',#637,#109);
#86=LINE('',#638,#110);
#87=LINE('',#657,#111);
#88=LINE('',#658,#112);
#89=LINE('',#672,#113);
#90=LINE('',#675,#114);
#91=LINE('',#678,#115);
#92=LINE('',#679,#116);
#93=LINE('',#682,#117);
#94=LINE('',#686,#118);
#95=LINE('',#687,#119);
#96=LINE('',#706,#120);
#97=LINE('',#723,#121);
#98=LINE('',#724,#122);
#99=LINE('',#743,#123);
#100=LINE('',#744,#124);
#101=LINE('',#759,#125);
#102=LINE('',#761,#126);
#103=LINE('',#762,#127);
#104=LINE('',#766,#128);
#105=VECTOR('',#469,10.);
#106=VECTOR('',#472,10.);
#107=VECTOR('',#483,10.);
#108=VECTOR('',#484,10.);
#109=VECTOR('',#495,10.);
#110=VECTOR('',#496,10.);
#111=VECTOR('',#507,10.);
#112=VECTOR('',#508,10.);
#113=VECTOR('',#515,10.);
#114=VECTOR('',#518,10.);
#115=VECTOR('',#521,10.);
#116=VECTOR('',#522,10.);
#117=VECTOR('',#525,10.);
#118=VECTOR('',#530,10.);
#119=VECTOR('',#531,10.);
#120=VECTOR('',#544,10.);
#121=VECTOR('',#553,10.);
#122=VECTOR('',#554,10.);
#123=VECTOR('',#565,10.);
#124=VECTOR('',#566,10.);
#125=VECTOR('',#575,10.);
#126=VECTOR('',#578,10.);
#127=VECTOR('',#579,10.);
#128=VECTOR('',#586,10.);
#129=CIRCLE('',#414,0.499999999999998);
#130=CIRCLE('',#415,0.5);
#131=CIRCLE('',#416,0.5);
#132=CIRCLE('',#417,1.);
#133=CIRCLE('',#418,0.5);
#134=CIRCLE('',#420,0.5);
#135=CIRCLE('',#421,0.5);
#136=CIRCLE('',#422,1.);
#137=CIRCLE('',#423,0.5);
#138=CIRCLE('',#425,0.5);
#139=CIRCLE('',#426,0.5);
#140=CIRCLE('',#427,1.);
#141=CIRCLE('',#428,0.5);
#142=CIRCLE('',#430,0.5);
#143=CIRCLE('',#431,1.);
#144=CIRCLE('',#432,0.5);
#145=CIRCLE('',#434,1.);
#146=CIRCLE('',#437,1.);
#147=CIRCLE('',#440,0.499999999999998);
#148=CIRCLE('',#441,0.5);
#149=CIRCLE('',#442,0.5);
#150=CIRCLE('',#444,0.5);
#151=CIRCLE('',#445,0.5);
#152=CIRCLE('',#446,0.5);
#153=CIRCLE('',#448,0.5);
#154=CIRCLE('',#449,0.5);
#155=CIRCLE('',#450,1.);
#156=CIRCLE('',#451,0.5);
#157=CIRCLE('',#453,0.5);
#158=CIRCLE('',#454,0.5);
#159=CIRCLE('',#455,1.);
#160=CIRCLE('',#456,0.5);
#161=VERTEX_POINT('',#591);
#162=VERTEX_POINT('',#592);
#163=VERTEX_POINT('',#594);
#164=VERTEX_POINT('',#596);
#165=VERTEX_POINT('',#608);
#166=VERTEX_POINT('',#609);
#167=VERTEX_POINT('',#614);
#168=VERTEX_POINT('',#615);
#169=VERTEX_POINT('',#628);
#170=VERTEX_POINT('',#629);
#171=VERTEX_POINT('',#634);
#172=VERTEX_POINT('',#635);
#173=VERTEX_POINT('',#648);
#174=VERTEX_POINT('',#649);
#175=VERTEX_POINT('',#654);
#176=VERTEX_POINT('',#655);
#177=VERTEX_POINT('',#671);
#178=VERTEX_POINT('',#673);
#179=VERTEX_POINT('',#677);
#180=VERTEX_POINT('',#681);
#181=VERTEX_POINT('',#685);
#182=VERTEX_POINT('',#698);
#183=VERTEX_POINT('',#700);
#184=VERTEX_POINT('',#704);
#185=VERTEX_POINT('',#716);
#186=VERTEX_POINT('',#720);
#187=VERTEX_POINT('',#721);
#188=VERTEX_POINT('',#734);
#189=VERTEX_POINT('',#735);
#190=VERTEX_POINT('',#740);
#191=VERTEX_POINT('',#741);
#192=VERTEX_POINT('',#754);
#193=EDGE_CURVE('',#161,#162,#129,.T.);
#194=EDGE_CURVE('',#162,#163,#81,.T.);
#195=EDGE_CURVE('',#163,#164,#130,.T.);
#196=EDGE_CURVE('',#164,#161,#82,.T.);
#197=EDGE_CURVE('',#165,#166,#131,.T.);
#198=EDGE_CURVE('',#166,#164,#132,.T.);
#199=EDGE_CURVE('',#163,#165,#133,.T.);
#200=EDGE_CURVE('',#167,#168,#134,.T.);
#201=EDGE_CURVE('',#168,#166,#83,.T.);
#202=EDGE_CURVE('',#165,#167,#84,.T.);
#203=EDGE_CURVE('',#169,#170,#135,.T.);
#204=EDGE_CURVE('',#170,#168,#136,.T.);
#205=EDGE_CURVE('',#167,#169,#137,.T.);
#206=EDGE_CURVE('',#171,#172,#138,.T.);
#207=EDGE_CURVE('',#172,#170,#85,.T.);
#208=EDGE_CURVE('',#169,#171,#86,.T.);
#209=EDGE_CURVE('',#173,#174,#139,.T.);
#210=EDGE_CURVE('',#174,#172,#140,.T.);
#211=EDGE_CURVE('',#171,#173,#141,.T.);
#212=EDGE_CURVE('',#175,#176,#142,.T.);
#213=EDGE_CURVE('',#176,#174,#87,.T.);
#214=EDGE_CURVE('',#173,#175,#88,.T.);
#215=EDGE_CURVE('',#161,#176,#143,.T.);
#216=EDGE_CURVE('',#175,#162,#144,.T.);
#217=EDGE_CURVE('',#174,#177,#89,.T.);
#218=EDGE_CURVE('',#178,#177,#145,.T.);
#219=EDGE_CURVE('',#178,#172,#90,.T.);
#220=EDGE_CURVE('',#179,#176,#91,.T.);
#221=EDGE_CURVE('',#177,#179,#92,.T.);
#222=EDGE_CURVE('',#161,#180,#93,.T.);
#223=EDGE_CURVE('',#179,#180,#146,.T.);
#224=EDGE_CURVE('',#181,#164,#94,.T.);
#225=EDGE_CURVE('',#180,#181,#95,.T.);
#226=EDGE_CURVE('',#180,#182,#147,.T.);
#227=EDGE_CURVE('',#182,#183,#148,.T.);
#228=EDGE_CURVE('',#183,#179,#149,.T.);
#229=EDGE_CURVE('',#184,#177,#150,.T.);
#230=EDGE_CURVE('',#183,#184,#96,.T.);
#231=EDGE_CURVE('',#185,#178,#151,.T.);
#232=EDGE_CURVE('',#184,#185,#152,.T.);
#233=EDGE_CURVE('',#186,#187,#153,.T.);
#234=EDGE_CURVE('',#187,#178,#97,.T.);
#235=EDGE_CURVE('',#185,#186,#98,.T.);
#236=EDGE_CURVE('',#188,#189,#154,.T.);
#237=EDGE_CURVE('',#189,#187,#155,.T.);
#238=EDGE_CURVE('',#186,#188,#156,.T.);
#239=EDGE_CURVE('',#190,#191,#157,.T.);
#240=EDGE_CURVE('',#191,#189,#99,.T.);
#241=EDGE_CURVE('',#188,#190,#100,.T.);
#242=EDGE_CURVE('',#192,#181,#158,.T.);
#243=EDGE_CURVE('',#181,#191,#159,.T.);
#244=EDGE_CURVE('',#190,#192,#160,.T.);
#245=EDGE_CURVE('',#192,#182,#101,.T.);
#246=EDGE_CURVE('',#189,#168,#102,.T.);
#247=EDGE_CURVE('',#166,#191,#103,.T.);
#248=EDGE_CURVE('',#170,#187,#104,.T.);
#249=ORIENTED_EDGE('',*,*,#193,.T.);
#250=ORIENTED_EDGE('',*,*,#194,.T.);
#251=ORIENTED_EDGE('',*,*,#195,.T.);
#252=ORIENTED_EDGE('',*,*,#196,.T.);
#253=ORIENTED_EDGE('',*,*,#197,.T.);
#254=ORIENTED_EDGE('',*,*,#198,.T.);
#255=ORIENTED_EDGE('',*,*,#195,.F.);
#256=ORIENTED_EDGE('',*,*,#199,.T.);
#257=ORIENTED_EDGE('',*,*,#200,.T.);
#258=ORIENTED_EDGE('',*,*,#201,.T.);
#259=ORIENTED_EDGE('',*,*,#197,.F.);
#260=ORIENTED_EDGE('',*,*,#202,.T.);
#261=ORIENTED_EDGE('',*,*,#203,.T.);
#262=ORIENTED_EDGE('',*,*,#204,.T.);
#263=ORIENTED_EDGE('',*,*,#200,.F.);
#264=ORIENTED_EDGE('',*,*,#205,.T.);
#265=ORIENTED_EDGE('',*,*,#206,.T.);
#266=ORIENTED_EDGE('',*,*,#207,.T.);
#267=ORIENTED_EDGE('',*,*,#203,.F.);
#268=ORIENTED_EDGE('',*,*,#208,.T.);
#269=ORIENTED_EDGE('',*,*,#209,.T.);
#270=ORIENTED_EDGE('',*,*,#210,.T.);
#271=ORIENTED_EDGE('',*,*,#206,.F.);
#272=ORIENTED_EDGE('',*,*,#211,.T.);
#273=ORIENTED_EDGE('',*,*,#212,.T.);
#274=ORIENTED_EDGE('',*,*,#213,.T.);
#275=ORIENTED_EDGE('',*,*,#209,.F.);
#276=ORIENTED_EDGE('',*,*,#214,.T.);
#277=ORIENTED_EDGE('',*,*,#193,.F.);
#278=ORIENTED_EDGE('',*,*,#215,.T.);
#279=ORIENTED_EDGE('',*,*,#212,.F.);
#280=ORIENTED_EDGE('',*,*,#216,.T.);
#281=ORIENTED_EDGE('',*,*,#210,.F.);
#282=ORIENTED_EDGE('',*,*,#217,.T.);
#283=ORIENTED_EDGE('',*,*,#218,.F.);
#284=ORIENTED_EDGE('',*,*,#219,.T.);
#285=ORIENTED_EDGE('',*,*,#213,.F.);
#286=ORIENTED_EDGE('',*,*,#220,.F.);
#287=ORIENTED_EDGE('',*,*,#221,.F.);
#288=ORIENTED_EDGE('',*,*,#217,.F.);
#289=ORIENTED_EDGE('',*,*,#215,.F.);
#290=ORIENTED_EDGE('',*,*,#222,.T.);
#291=ORIENTED_EDGE('',*,*,#223,.F.);
#292=ORIENTED_EDGE('',*,*,#220,.T.);
#293=ORIENTED_EDGE('',*,*,#196,.F.);
#294=ORIENTED_EDGE('',*,*,#224,.F.);
#295=ORIENTED_EDGE('',*,*,#225,.F.);
#296=ORIENTED_EDGE('',*,*,#222,.F.);
#297=ORIENTED_EDGE('',*,*,#194,.F.);
#298=ORIENTED_EDGE('',*,*,#216,.F.);
#299=ORIENTED_EDGE('',*,*,#214,.F.);
#300=ORIENTED_EDGE('',*,*,#211,.F.);
#301=ORIENTED_EDGE('',*,*,#208,.F.);
#302=ORIENTED_EDGE('',*,*,#205,.F.);
#303=ORIENTED_EDGE('',*,*,#202,.F.);
#304=ORIENTED_EDGE('',*,*,#199,.F.);
#305=ORIENTED_EDGE('',*,*,#226,.T.);
#306=ORIENTED_EDGE('',*,*,#227,.T.);
#307=ORIENTED_EDGE('',*,*,#228,.T.);
#308=ORIENTED_EDGE('',*,*,#223,.T.);
#309=ORIENTED_EDGE('',*,*,#229,.T.);
#310=ORIENTED_EDGE('',*,*,#221,.T.);
#311=ORIENTED_EDGE('',*,*,#228,.F.);
#312=ORIENTED_EDGE('',*,*,#230,.T.);
#313=ORIENTED_EDGE('',*,*,#231,.T.);
#314=ORIENTED_EDGE('',*,*,#218,.T.);
#315=ORIENTED_EDGE('',*,*,#229,.F.);
#316=ORIENTED_EDGE('',*,*,#232,.T.);
#317=ORIENTED_EDGE('',*,*,#233,.T.);
#318=ORIENTED_EDGE('',*,*,#234,.T.);
#319=ORIENTED_EDGE('',*,*,#231,.F.);
#320=ORIENTED_EDGE('',*,*,#235,.T.);
#321=ORIENTED_EDGE('',*,*,#236,.T.);
#322=ORIENTED_EDGE('',*,*,#237,.T.);
#323=ORIENTED_EDGE('',*,*,#233,.F.);
#324=ORIENTED_EDGE('',*,*,#238,.T.);
#325=ORIENTED_EDGE('',*,*,#239,.T.);
#326=ORIENTED_EDGE('',*,*,#240,.T.);
#327=ORIENTED_EDGE('',*,*,#236,.F.);
#328=ORIENTED_EDGE('',*,*,#241,.T.);
#329=ORIENTED_EDGE('',*,*,#242,.T.);
#330=ORIENTED_EDGE('',*,*,#243,.T.);
#331=ORIENTED_EDGE('',*,*,#239,.F.);
#332=ORIENTED_EDGE('',*,*,#244,.T.);
#333=ORIENTED_EDGE('',*,*,#242,.F.);
#334=ORIENTED_EDGE('',*,*,#245,.T.);
#335=ORIENTED_EDGE('',*,*,#226,.F.);
#336=ORIENTED_EDGE('',*,*,#225,.T.);
#337=ORIENTED_EDGE('',*,*,#201,.F.);
#338=ORIENTED_EDGE('',*,*,#246,.F.);
#339=ORIENTED_EDGE('',*,*,#240,.F.);
#340=ORIENTED_EDGE('',*,*,#247,.F.);
#341=ORIENTED_EDGE('',*,*,#198,.F.);
#342=ORIENTED_EDGE('',*,*,#247,.T.);
#343=ORIENTED_EDGE('',*,*,#243,.F.);
#344=ORIENTED_EDGE('',*,*,#224,.T.);
#345=ORIENTED_EDGE('',*,*,#227,.F.);
#346=ORIENTED_EDGE('',*,*,#245,.F.);
#347=ORIENTED_EDGE('',*,*,#244,.F.);
#348=ORIENTED_EDGE('',*,*,#241,.F.);
#349=ORIENTED_EDGE('',*,*,#238,.F.);
#350=ORIENTED_EDGE('',*,*,#235,.F.);
#351=ORIENTED_EDGE('',*,*,#232,.F.);
#352=ORIENTED_EDGE('',*,*,#230,.F.);
#353=ORIENTED_EDGE('',*,*,#204,.F.);
#354=ORIENTED_EDGE('',*,*,#248,.T.);
#355=ORIENTED_EDGE('',*,*,#237,.F.);
#356=ORIENTED_EDGE('',*,*,#246,.T.);
#357=ORIENTED_EDGE('',*,*,#207,.F.);
#358=ORIENTED_EDGE('',*,*,#219,.F.);
#359=ORIENTED_EDGE('',*,*,#234,.F.);
#360=ORIENTED_EDGE('',*,*,#248,.F.);
#361=CYLINDRICAL_SURFACE('',#413,0.5);
#362=CYLINDRICAL_SURFACE('',#419,0.5);
#363=CYLINDRICAL_SURFACE('',#424,0.5);
#364=CYLINDRICAL_SURFACE('',#429,0.5);
#365=CYLINDRICAL_SURFACE('',#433,1.);
#366=CYLINDRICAL_SURFACE('',#436,1.);
#367=CYLINDRICAL_SURFACE('',#443,0.5);
#368=CYLINDRICAL_SURFACE('',#447,0.5);
#369=CYLINDRICAL_SURFACE('',#452,0.5);
#370=CYLINDRICAL_SURFACE('',#457,0.5);
#371=CYLINDRICAL_SURFACE('',#459,1.);
#372=CYLINDRICAL_SURFACE('',#461,1.);
#373=ADVANCED_FACE('',(#29),#361,.T.);
#374=ADVANCED_FACE('',(#30),#21,.F.);
#375=ADVANCED_FACE('',(#31),#362,.T.);
#376=ADVANCED_FACE('',(#32),#22,.F.);
#377=ADVANCED_FACE('',(#33),#363,.T.);
#378=ADVANCED_FACE('',(#34),#23,.F.);
#379=ADVANCED_FACE('',(#35),#364,.T.);
#380=ADVANCED_FACE('',(#36),#24,.F.);
#381=ADVANCED_FACE('',(#37),#365,.T.);
#382=ADVANCED_FACE('',(#38),#15,.T.);
#383=ADVANCED_FACE('',(#39),#366,.T.);
#384=ADVANCED_FACE('',(#40),#16,.T.);
#385=ADVANCED_FACE('',(#41),#17,.F.);
#386=ADVANCED_FACE('',(#42),#25,.F.);
#387=ADVANCED_FACE('',(#43),#367,.T.);
#388=ADVANCED_FACE('',(#44),#26,.F.);
#389=ADVANCED_FACE('',(#45),#368,.T.);
#390=ADVANCED_FACE('',(#46),#27,.F.);
#391=ADVANCED_FACE('',(#47),#369,.T.);
#392=ADVANCED_FACE('',(#48),#28,.F.);
#393=ADVANCED_FACE('',(#49),#370,.T.);
#394=ADVANCED_FACE('',(#50),#18,.T.);
#395=ADVANCED_FACE('',(#51),#371,.T.);
#396=ADVANCED_FACE('',(#52),#19,.T.);
#397=ADVANCED_FACE('',(#53),#372,.T.);
#398=ADVANCED_FACE('',(#54),#20,.T.);
#399=CLOSED_SHELL('',(#373,#374,#375,#376,#377,#378,#379,#380,#381,#382,
#383,#384,#385,#386,#387,#388,#389,#390,#391,#392,#393,#394,#395,#396,#397,
#398));
#400=DERIVED_UNIT_ELEMENT(#402,1.);
#401=DERIVED_UNIT_ELEMENT(#773,-3.);
#402=(
MASS_UNIT()
NAMED_UNIT(*)
SI_UNIT(.KILO.,.GRAM.)
);
#403=DERIVED_UNIT((#400,#401));
#404=MEASURE_REPRESENTATION_ITEM('density measure',
POSITIVE_RATIO_MEASURE(7850.),#403);
#405=PROPERTY_DEFINITION_REPRESENTATION(#410,#407);
#406=PROPERTY_DEFINITION_REPRESENTATION(#411,#408);
#407=REPRESENTATION('material name',(#409),#770);
#408=REPRESENTATION('density',(#404),#770);
#409=DESCRIPTIVE_REPRESENTATION_ITEM('Steel','Steel');
#410=PROPERTY_DEFINITION('material property','material name',#780);
#411=PROPERTY_DEFINITION('material property','density of part',#780);
#412=AXIS2_PLACEMENT_3D('',#589,#463,#464);
#413=AXIS2_PLACEMENT_3D('',#590,#465,#466);
#414=AXIS2_PLACEMENT_3D('',#593,#467,#468);
#415=AXIS2_PLACEMENT_3D('',#597,#470,#471);
#416=AXIS2_PLACEMENT_3D('',#610,#473,#474);
#417=AXIS2_PLACEMENT_3D('',#611,#475,#476);
#418=AXIS2_PLACEMENT_3D('',#612,#477,#478);
#419=AXIS2_PLACEMENT_3D('',#613,#479,#480);
#420=AXIS2_PLACEMENT_3D('',#616,#481,#482);
#421=AXIS2_PLACEMENT_3D('',#630,#485,#486);
#422=AXIS2_PLACEMENT_3D('',#631,#487,#488);
#423=AXIS2_PLACEMENT_3D('',#632,#489,#490);
#424=AXIS2_PLACEMENT_3D('',#633,#491,#492);
#425=AXIS2_PLACEMENT_3D('',#636,#493,#494);
#426=AXIS2_PLACEMENT_3D('',#650,#497,#498);
#427=AXIS2_PLACEMENT_3D('',#651,#499,#500);
#428=AXIS2_PLACEMENT_3D('',#652,#501,#502);
#429=AXIS2_PLACEMENT_3D('',#653,#503,#504);
#430=AXIS2_PLACEMENT_3D('',#656,#505,#506);
#431=AXIS2_PLACEMENT_3D('',#668,#509,#510);
#432=AXIS2_PLACEMENT_3D('',#669,#511,#512);
#433=AXIS2_PLACEMENT_3D('',#670,#513,#514);
#434=AXIS2_PLACEMENT_3D('',#674,#516,#517);
#435=AXIS2_PLACEMENT_3D('',#676,#519,#520);
#436=AXIS2_PLACEMENT_3D('',#680,#523,#524);
#437=AXIS2_PLACEMENT_3D('',#683,#526,#527);
#438=AXIS2_PLACEMENT_3D('',#684,#528,#529);
#439=AXIS2_PLACEMENT_3D('',#688,#532,#533);
#440=AXIS2_PLACEMENT_3D('',#699,#534,#535);
#441=AXIS2_PLACEMENT_3D('',#701,#536,#537);
#442=AXIS2_PLACEMENT_3D('',#702,#538,#539);
#443=AXIS2_PLACEMENT_3D('',#703,#540,#541);
#444=AXIS2_PLACEMENT_3D('',#705,#542,#543);
#445=AXIS2_PLACEMENT_3D('',#717,#545,#546);
#446=AXIS2_PLACEMENT_3D('',#718,#547,#548);
#447=AXIS2_PLACEMENT_3D('',#719,#549,#550);
#448=AXIS2_PLACEMENT_3D('',#722,#551,#552);
#449=AXIS2_PLACEMENT_3D('',#736,#555,#556);
#450=AXIS2_PLACEMENT_3D('',#737,#557,#558);
#451=AXIS2_PLACEMENT_3D('',#738,#559,#560);
#452=AXIS2_PLACEMENT_3D('',#739,#561,#562);
#453=AXIS2_PLACEMENT_3D('',#742,#563,#564);
#454=AXIS2_PLACEMENT_3D('',#755,#567,#568);
#455=AXIS2_PLACEMENT_3D('',#756,#569,#570);
#456=AXIS2_PLACEMENT_3D('',#757,#571,#572);
#457=AXIS2_PLACEMENT_3D('',#758,#573,#574);
#458=AXIS2_PLACEMENT_3D('',#760,#576,#577);
#459=AXIS2_PLACEMENT_3D('',#763,#580,#581);
#460=AXIS2_PLACEMENT_3D('',#764,#582,#583);
#461=AXIS2_PLACEMENT_3D('',#765,#584,#585);
#462=AXIS2_PLACEMENT_3D('',#767,#587,#588);
#463=DIRECTION('axis',(0.,0.,1.));
#464=DIRECTION('refdir',(1.,0.,0.));
#465=DIRECTION('center_axis',(0.,-1.,0.));
#466=DIRECTION('ref_axis',(-0.707106781186549,0.,0.707106781186546));
#467=DIRECTION('center_axis',(0.,-1.,0.));
#468=DIRECTION('ref_axis',(0.,0.,1.));
#469=DIRECTION('',(0.,-1.,0.));
#470=DIRECTION('center_axis',(0.,1.,0.));
#471=DIRECTION('ref_axis',(-1.,0.,0.));
#472=DIRECTION('',(0.,1.,0.));
#473=DIRECTION('center_axis',(0.,0.,1.));
#474=DIRECTION('ref_axis',(-1.,0.,0.));
#475=DIRECTION('center_axis',(-1.,0.,0.));
#476=DIRECTION('ref_axis',(0.,-0.707106781186548,0.707106781186547));
#477=DIRECTION('center_axis',(1.,0.,0.));
#478=DIRECTION('ref_axis',(0.,-0.707106781186548,0.707106781186547));
#479=DIRECTION('center_axis',(0.,-9.86076131526265E-33,-1.));
#480=DIRECTION('ref_axis',(-0.707106781186547,-0.707106781186548,0.));
#481=DIRECTION('center_axis',(0.,0.,1.));
#482=DIRECTION('ref_axis',(-1.,0.,0.));
#483=DIRECTION('',(0.,9.86076131526265E-33,1.));
#484=DIRECTION('',(0.,-9.86076131526265E-33,-1.));
#485=DIRECTION('center_axis',(0.,-1.,0.));
#486=DIRECTION('ref_axis',(-1.,0.,0.));
#487=DIRECTION('center_axis',(-1.,0.,0.));
#488=DIRECTION('ref_axis',(0.,-0.707106781186548,-0.707106781186548));
#489=DIRECTION('center_axis',(1.,0.,0.));
#490=DIRECTION('ref_axis',(0.,-0.707106781186548,-0.707106781186548));
#491=DIRECTION('center_axis',(0.,1.,0.));
#492=DIRECTION('ref_axis',(-0.707106781186547,0.,-0.707106781186548));
#493=DIRECTION('center_axis',(0.,-1.,0.));
#494=DIRECTION('ref_axis',(-1.,0.,0.));
#495=DIRECTION('',(0.,-1.,0.));
#496=DIRECTION('',(0.,1.,0.));
#497=DIRECTION('center_axis',(0.,0.,-1.));
#498=DIRECTION('ref_axis',(-1.,0.,0.));
#499=DIRECTION('center_axis',(-1.,0.,0.));
#500=DIRECTION('ref_axis',(0.,0.707106781186549,-0.707106781186546));
#501=DIRECTION('center_axis',(1.,0.,0.));
#502=DIRECTION('ref_axis',(0.,0.707106781186549,-0.707106781186546));
#503=DIRECTION('center_axis',(0.,0.,1.));
#504=DIRECTION('ref_axis',(-0.707106781186549,0.707106781186546,0.));
#505=DIRECTION('center_axis',(0.,0.,-1.));
#506=DIRECTION('ref_axis',(-1.,0.,0.));
#507=DIRECTION('',(0.,0.,-1.));
#508=DIRECTION('',(0.,0.,1.));
#509=DIRECTION('center_axis',(-1.,0.,0.));
#510=DIRECTION('ref_axis',(0.,0.70710678118655,0.707106781186545));
#511=DIRECTION('center_axis',(1.,0.,0.));
#512=DIRECTION('ref_axis',(0.,0.70710678118655,0.707106781186545));
#513=DIRECTION('center_axis',(1.,0.,0.));
#514=DIRECTION('ref_axis',(0.,0.707106781186549,-0.707106781186546));
#515=DIRECTION('',(1.,0.,0.));
#516=DIRECTION('center_axis',(1.,0.,0.));
#517=DIRECTION('ref_axis',(0.,0.707106781186549,-0.707106781186546));
#518=DIRECTION('',(-1.,0.,0.));
#519=DIRECTION('center_axis',(0.,1.,0.));
#520=DIRECTION('ref_axis',(0.,0.,1.));
#521=DIRECTION('',(-1.,0.,0.));
#522=DIRECTION('',(0.,0.,1.));
#523=DIRECTION('center_axis',(1.,0.,0.));
#524=DIRECTION('ref_axis',(0.,0.707106781186544,0.707106781186551));
#525=DIRECTION('',(1.,0.,0.));
#526=DIRECTION('center_axis',(1.,0.,0.));
#527=DIRECTION('ref_axis',(0.,0.70710678118655,0.707106781186545));
#528=DIRECTION('center_axis',(0.,0.,1.));
#529=DIRECTION('ref_axis',(0.,-1.,0.));
#530=DIRECTION('',(-1.,0.,0.));
#531=DIRECTION('',(0.,-1.,0.));
#532=DIRECTION('center_axis',(1.,0.,0.));
#533=DIRECTION('ref_axis',(0.,1.,0.));
#534=DIRECTION('center_axis',(0.,1.,0.));
#535=DIRECTION('ref_axis',(0.,0.,1.));
#536=DIRECTION('center_axis',(-1.,0.,0.));
#537=DIRECTION('ref_axis',(0.,0.70710678118655,0.707106781186545));
#538=DIRECTION('center_axis',(0.,0.,1.));
#539=DIRECTION('ref_axis',(1.,0.,0.));
#540=DIRECTION('center_axis',(0.,0.,1.));
#541=DIRECTION('ref_axis',(0.707106781186548,0.707106781186547,0.));
#542=DIRECTION('center_axis',(0.,-5.5511151231258E-16,1.));
#543=DIRECTION('ref_axis',(1.,0.,0.));
#544=DIRECTION('',(0.,0.,-1.));
#545=DIRECTION('center_axis',(0.,1.,0.));
#546=DIRECTION('ref_axis',(1.,0.,0.));
#547=DIRECTION('center_axis',(-1.,0.,0.));
#548=DIRECTION('ref_axis',(0.,0.707106781186549,-0.707106781186546));
#549=DIRECTION('center_axis',(0.,1.,0.));
#550=DIRECTION('ref_axis',(0.707106781186547,0.,-0.707106781186548));
#551=DIRECTION('center_axis',(0.,1.,5.55111512312578E-16));
#552=DIRECTION('ref_axis',(1.,0.,0.));
#553=DIRECTION('',(0.,1.,0.));
#554=DIRECTION('',(0.,-1.,0.));
#555=DIRECTION('center_axis',(0.,0.,-1.));
#556=DIRECTION('ref_axis',(1.,0.,0.));
#557=DIRECTION('center_axis',(1.,0.,0.));
#558=DIRECTION('ref_axis',(0.,-0.707106781186548,-0.707106781186548));
#559=DIRECTION('center_axis',(-1.,0.,0.));
#560=DIRECTION('ref_axis',(0.,-0.707106781186548,-0.707106781186548));
#561=DIRECTION('center_axis',(0.,-9.86076131526265E-33,-1.));
#562=DIRECTION('ref_axis',(0.707106781186547,-0.707106781186548,0.));
#563=DIRECTION('center_axis',(0.,0.,-1.));
#564=DIRECTION('ref_axis',(1.,0.,0.));
#565=DIRECTION('',(0.,-9.86076131526265E-33,-1.));
#566=DIRECTION('',(0.,9.86076131526265E-33,1.));
#567=DIRECTION('center_axis',(0.,-1.,0.));
#568=DIRECTION('ref_axis',(1.,0.,0.));
#569=DIRECTION('center_axis',(1.,0.,0.));
#570=DIRECTION('ref_axis',(0.,-0.707106781186548,0.707106781186547));
#571=DIRECTION('center_axis',(-1.,0.,0.));
#572=DIRECTION('ref_axis',(0.,-0.707106781186548,0.707106781186547));
#573=DIRECTION('center_axis',(0.,-1.,0.));
#574=DIRECTION('ref_axis',(0.707106781186548,0.,0.707106781186547));
#575=DIRECTION('',(0.,1.,0.));
#576=DIRECTION('center_axis',(0.,-1.,9.86076131526265E-33));
#577=DIRECTION('ref_axis',(0.,-9.86076131526265E-33,-1.));
#578=DIRECTION('',(-1.,0.,0.));
#579=DIRECTION('',(1.,0.,0.));
#580=DIRECTION('center_axis',(1.,0.,0.));
#581=DIRECTION('ref_axis',(0.,-0.707106781186549,0.707106781186546));
#582=DIRECTION('center_axis',(1.,0.,0.));
#583=DIRECTION('ref_axis',(0.,0.,-1.));
#584=DIRECTION('center_axis',(1.,0.,0.));
#585=DIRECTION('ref_axis',(0.,-0.707106781186547,-0.707106781186548));
#586=DIRECTION('',(1.,0.,0.));
#587=DIRECTION('center_axis',(0.,0.,-1.));
#588=DIRECTION('ref_axis',(0.,1.,0.));
#589=CARTESIAN_POINT('',(0.,0.,0.));
#590=CARTESIAN_POINT('Origin',(0.5,28.125,24.5));
#591=CARTESIAN_POINT('',(0.5,36.5,25.));
#592=CARTESIAN_POINT('',(0.,36.5,24.5));
#593=CARTESIAN_POINT('Origin',(0.5,36.5,24.5));
#594=CARTESIAN_POINT('',(0.,1.,24.5));
#595=CARTESIAN_POINT('',(0.,28.125,24.5));
#596=CARTESIAN_POINT('',(0.5,1.,25.));
#597=CARTESIAN_POINT('Origin',(0.5,1.,24.5));
#598=CARTESIAN_POINT('',(0.5,28.125,25.));
#599=CARTESIAN_POINT('Ctrl Pts',(0.,1.,24.5));
#600=CARTESIAN_POINT('Ctrl Pts',(0.,0.500000000000003,24.5));
#601=CARTESIAN_POINT('Ctrl Pts',(0.,0.500000000000003,24.));
#602=CARTESIAN_POINT('Ctrl Pts',(-1.93044280246774E-15,1.,25.));
#603=CARTESIAN_POINT('Ctrl Pts',(-1.93044280246774E-15,4.71844785465692E-15,
25.));
#604=CARTESIAN_POINT('Ctrl Pts',(-1.94289029309402E-15,4.44089209850063E-15,
24.));
#605=CARTESIAN_POINT('Ctrl Pts',(0.5,1.,25.));
#606=CARTESIAN_POINT('Ctrl Pts',(0.5,4.71844785465692E-15,25.));
#607=CARTESIAN_POINT('Ctrl Pts',(0.5,4.44089209850063E-15,24.));
#608=CARTESIAN_POINT('',(0.,0.500000000000001,24.));
#609=CARTESIAN_POINT('',(0.5,0.,24.));
#610=CARTESIAN_POINT('Origin',(0.5,0.500000000000001,24.));
#611=CARTESIAN_POINT('Origin',(0.5,1.,24.));
#612=CARTESIAN_POINT('Origin',(0.,1.,24.));
#613=CARTESIAN_POINT('Origin',(0.5,0.5,18.75));
#614=CARTESIAN_POINT('',(0.,0.5,1.));
#615=CARTESIAN_POINT('',(0.5,0.,1.));
#616=CARTESIAN_POINT('Origin',(0.5,0.5,1.));
#617=CARTESIAN_POINT('',(0.5,0.,18.75));
#618=CARTESIAN_POINT('',(0.,0.5,18.75));
#619=CARTESIAN_POINT('Ctrl Pts',(0.,0.5,1.));
#620=CARTESIAN_POINT('Ctrl Pts',(0.,0.500000000000001,0.500000000000001));
#621=CARTESIAN_POINT('Ctrl Pts',(0.,1.,0.500000000000001));
#622=CARTESIAN_POINT('Ctrl Pts',(-4.16333634234434E-16,0.,1.));
#623=CARTESIAN_POINT('Ctrl Pts',(-4.14903337052906E-16,2.77555756156289E-16,
1.11022302462516E-15));
#624=CARTESIAN_POINT('Ctrl Pts',(-4.14903337052906E-16,1.,8.32667268468867E-16));
#625=CARTESIAN_POINT('Ctrl Pts',(0.5,0.,1.));
#626=CARTESIAN_POINT('Ctrl Pts',(0.5,2.77555756156289E-16,1.11022302462516E-15));
#627=CARTESIAN_POINT('Ctrl Pts',(0.5,1.,8.32667268468867E-16));
#628=CARTESIAN_POINT('',(0.,1.,0.500000000000001));
#629=CARTESIAN_POINT('',(0.5,1.,0.));
#630=CARTESIAN_POINT('Origin',(0.5,1.,0.500000000000001));
#631=CARTESIAN_POINT('Origin',(0.5,1.,1.));
#632=CARTESIAN_POINT('Origin',(0.,1.,1.));
#633=CARTESIAN_POINT('Origin',(0.5,9.375,0.5));
#634=CARTESIAN_POINT('',(0.,36.5,0.5));
#635=CARTESIAN_POINT('',(0.5,36.5,0.));
#636=CARTESIAN_POINT('Origin',(0.5,36.5,0.5));
#637=CARTESIAN_POINT('',(0.5,9.375,0.));
#638=CARTESIAN_POINT('',(0.,9.375,0.5));
#639=CARTESIAN_POINT('Ctrl Pts',(0.,36.5,0.500000000000002));
#640=CARTESIAN_POINT('Ctrl Pts',(0.,37.,0.500000000000002));
#641=CARTESIAN_POINT('Ctrl Pts',(0.,37.,1.));
#642=CARTESIAN_POINT('Ctrl Pts',(-1.86513216296952E-15,36.5,2.77555756156289E-16));
#643=CARTESIAN_POINT('Ctrl Pts',(-1.86513216296952E-15,37.5,5.55111512312578E-16));
#644=CARTESIAN_POINT('Ctrl Pts',(-1.87350135405495E-15,37.5,1.));
#645=CARTESIAN_POINT('Ctrl Pts',(0.5,36.5,2.77555756156289E-16));
#646=CARTESIAN_POINT('Ctrl Pts',(0.5,37.5,5.55111512312578E-16));
#647=CARTESIAN_POINT('Ctrl Pts',(0.5,37.5,1.));
#648=CARTESIAN_POINT('',(0.,37.,1.));
#649=CARTESIAN_POINT('',(0.5,37.5,1.));
#650=CARTESIAN_POINT('Origin',(0.5,37.,1.));
#651=CARTESIAN_POINT('Origin',(0.5,36.5,1.));
#652=CARTESIAN_POINT('Origin',(0.,36.5,1.));
#653=CARTESIAN_POINT('Origin',(0.5,37.,6.25));
#654=CARTESIAN_POINT('',(0.,37.,24.));
#655=CARTESIAN_POINT('',(0.5,37.5,24.));
#656=CARTESIAN_POINT('Origin',(0.5,37.,24.));
#657=CARTESIAN_POINT('',(0.5,37.5,6.25));
#658=CARTESIAN_POINT('',(0.,37.,6.25));
#659=CARTESIAN_POINT('Ctrl Pts',(0.,37.,24.));
#660=CARTESIAN_POINT('Ctrl Pts',(0.,37.,24.5));
#661=CARTESIAN_POINT('Ctrl Pts',(0.,36.5,24.5));
#662=CARTESIAN_POINT('Ctrl Pts',(-1.94289029309402E-15,37.5,24.));
#663=CARTESIAN_POINT('Ctrl Pts',(-1.93044280246774E-15,37.5,25.));
#664=CARTESIAN_POINT('Ctrl Pts',(-1.93044280246774E-15,36.5,25.));
#665=CARTESIAN_POINT('Ctrl Pts',(0.5,37.5,24.));
#666=CARTESIAN_POINT('Ctrl Pts',(0.5,37.5,25.));
#667=CARTESIAN_POINT('Ctrl Pts',(0.5,36.5,25.));
#668=CARTESIAN_POINT('Origin',(0.5,36.5,24.));
#669=CARTESIAN_POINT('Origin',(0.,36.5,24.));
#670=CARTESIAN_POINT('Origin',(0.,36.5,1.));
#671=CARTESIAN_POINT('',(3.5,37.5,1.));
#672=CARTESIAN_POINT('',(0.,37.5,1.));
#673=CARTESIAN_POINT('',(3.5,36.5,0.));
#674=CARTESIAN_POINT('Origin',(3.5,36.5,1.));
#675=CARTESIAN_POINT('',(0.,36.5,0.));
#676=CARTESIAN_POINT('Origin',(0.,37.5,0.));
#677=CARTESIAN_POINT('',(3.5,37.5,24.));
#678=CARTESIAN_POINT('',(0.,37.5,24.));
#679=CARTESIAN_POINT('',(3.5,37.5,6.25));
#680=CARTESIAN_POINT('Origin',(0.,36.5,24.));
#681=CARTESIAN_POINT('',(3.5,36.5,25.));
#682=CARTESIAN_POINT('',(0.,36.5,25.));
#683=CARTESIAN_POINT('Origin',(3.5,36.5,24.));
#684=CARTESIAN_POINT('Origin',(0.,37.5,25.));
#685=CARTESIAN_POINT('',(3.5,1.,25.));
#686=CARTESIAN_POINT('',(0.,1.,25.));
#687=CARTESIAN_POINT('',(3.5,28.125,25.));
#688=CARTESIAN_POINT('Origin',(0.,18.75,12.5));
#689=CARTESIAN_POINT('Ctrl Pts',(4.,36.5,24.5));
#690=CARTESIAN_POINT('Ctrl Pts',(4.,37.,24.5));
#691=CARTESIAN_POINT('Ctrl Pts',(4.,37.,24.));
#692=CARTESIAN_POINT('Ctrl Pts',(4.,36.5,25.));
#693=CARTESIAN_POINT('Ctrl Pts',(4.,37.5,25.));
#694=CARTESIAN_POINT('Ctrl Pts',(4.,37.5,24.));
#695=CARTESIAN_POINT('Ctrl Pts',(3.5,36.5,25.));
#696=CARTESIAN_POINT('Ctrl Pts',(3.5,37.5,25.));
#697=CARTESIAN_POINT('Ctrl Pts',(3.5,37.5,24.));
#698=CARTESIAN_POINT('',(4.,36.5,24.5));
#699=CARTESIAN_POINT('Origin',(3.5,36.5,24.5));
#700=CARTESIAN_POINT('',(4.,37.,24.));
#701=CARTESIAN_POINT('Origin',(4.,36.5,24.));
#702=CARTESIAN_POINT('Origin',(3.5,37.,24.));
#703=CARTESIAN_POINT('Origin',(3.5,37.,6.25));
#704=CARTESIAN_POINT('',(4.,37.,1.));
#705=CARTESIAN_POINT('Origin',(3.5,37.,1.));
#706=CARTESIAN_POINT('',(4.,37.,6.25));
#707=CARTESIAN_POINT('Ctrl Pts',(4.,37.,1.));
#708=CARTESIAN_POINT('Ctrl Pts',(4.,37.,0.500000000000002));
#709=CARTESIAN_POINT('Ctrl Pts',(4.,36.5,0.500000000000002));
#710=CARTESIAN_POINT('Ctrl Pts',(4.,37.5,1.));
#711=CARTESIAN_POINT('Ctrl Pts',(4.,37.5,2.77555756156289E-16));
#712=CARTESIAN_POINT('Ctrl Pts',(4.,36.5,0.));
#713=CARTESIAN_POINT('Ctrl Pts',(3.5,37.5,1.));
#714=CARTESIAN_POINT('Ctrl Pts',(3.5,37.5,2.77555756156289E-16));
#715=CARTESIAN_POINT('Ctrl Pts',(3.5,36.5,0.));
#716=CARTESIAN_POINT('',(4.,36.5,0.5));
#717=CARTESIAN_POINT('Origin',(3.5,36.5,0.5));
#718=CARTESIAN_POINT('Origin',(4.,36.5,1.));
#719=CARTESIAN_POINT('Origin',(3.5,9.375,0.5));
#720=CARTESIAN_POINT('',(4.,1.,0.5));
#721=CARTESIAN_POINT('',(3.5,1.,0.));
#722=CARTESIAN_POINT('Origin',(3.5,1.,0.5));
#723=CARTESIAN_POINT('',(3.5,9.375,0.));
#724=CARTESIAN_POINT('',(4.,9.375,0.5));
#725=CARTESIAN_POINT('Ctrl Pts',(4.,1.,0.500000000000001));
#726=CARTESIAN_POINT('Ctrl Pts',(4.,0.500000000000001,0.500000000000001));
#727=CARTESIAN_POINT('Ctrl Pts',(4.,0.5,1.));
#728=CARTESIAN_POINT('Ctrl Pts',(4.,1.,1.11022302462516E-15));
#729=CARTESIAN_POINT('Ctrl Pts',(4.,5.55111512312578E-16,1.38777878078145E-15));
#730=CARTESIAN_POINT('Ctrl Pts',(4.,2.77555756156289E-16,1.));
#731=CARTESIAN_POINT('Ctrl Pts',(3.5,1.,1.11022302462516E-15));
#732=CARTESIAN_POINT('Ctrl Pts',(3.5,5.55111512312578E-16,1.38777878078145E-15));
#733=CARTESIAN_POINT('Ctrl Pts',(3.5,2.77555756156289E-16,1.));
#734=CARTESIAN_POINT('',(4.,0.5,1.));
#735=CARTESIAN_POINT('',(3.5,0.,1.));
#736=CARTESIAN_POINT('Origin',(3.5,0.5,1.));
#737=CARTESIAN_POINT('Origin',(3.5,1.,1.));
#738=CARTESIAN_POINT('Origin',(4.,1.,1.));
#739=CARTESIAN_POINT('Origin',(3.5,0.5,18.75));
#740=CARTESIAN_POINT('',(4.,0.5,24.));
#741=CARTESIAN_POINT('',(3.5,0.,24.));
#742=CARTESIAN_POINT('Origin',(3.5,0.5,24.));
#743=CARTESIAN_POINT('',(3.5,0.,18.75));
#744=CARTESIAN_POINT('',(4.,0.5,18.75));
#745=CARTESIAN_POINT('Ctrl Pts',(4.,0.500000000000003,24.));
#746=CARTESIAN_POINT('Ctrl Pts',(4.,0.500000000000003,24.5));
#747=CARTESIAN_POINT('Ctrl Pts',(4.,1.,24.5));
#748=CARTESIAN_POINT('Ctrl Pts',(4.,4.44089209850063E-15,24.));
#749=CARTESIAN_POINT('Ctrl Pts',(4.,4.71844785465692E-15,25.));
#750=CARTESIAN_POINT('Ctrl Pts',(4.,1.,25.));
#751=CARTESIAN_POINT('Ctrl Pts',(3.5,4.44089209850063E-15,24.));
#752=CARTESIAN_POINT('Ctrl Pts',(3.5,4.71844785465692E-15,25.));
#753=CARTESIAN_POINT('Ctrl Pts',(3.5,1.,25.));
#754=CARTESIAN_POINT('',(4.,1.,24.5));
#755=CARTESIAN_POINT('Origin',(3.5,1.,24.5));
#756=CARTESIAN_POINT('Origin',(3.5,1.,24.));
#757=CARTESIAN_POINT('Origin',(4.,1.,24.));
#758=CARTESIAN_POINT('Origin',(3.5,28.125,24.5));
#759=CARTESIAN_POINT('',(4.,28.125,24.5));
#760=CARTESIAN_POINT('Origin',(0.,2.46519032881566E-31,25.));
#761=CARTESIAN_POINT('',(0.,0.,1.));
#762=CARTESIAN_POINT('',(0.,0.,24.));
#763=CARTESIAN_POINT('Origin',(0.,1.,24.));
#764=CARTESIAN_POINT('Origin',(4.,18.75,12.5));
#765=CARTESIAN_POINT('Origin',(0.,1.,1.));
#766=CARTESIAN_POINT('',(0.,1.,0.));
#767=CARTESIAN_POINT('Origin',(0.,0.,0.));
#768=UNCERTAINTY_MEASURE_WITH_UNIT(LENGTH_MEASURE(0.01),#772,
'DISTANCE_ACCURACY_VALUE',
'Maximum model space distance between geometric entities at asserted c
onnectivities');
#769=UNCERTAINTY_MEASURE_WITH_UNIT(LENGTH_MEASURE(0.01),#772,
'DISTANCE_ACCURACY_VALUE',
'Maximum model space distance between geometric entities at asserted c
onnectivities');
#770=(
GEOMETRIC_REPRESENTATION_CONTEXT(3)
GLOBAL_UNCERTAINTY_ASSIGNED_CONTEXT((#768))
GLOBAL_UNIT_ASSIGNED_CONTEXT((#772,#774,#775))
REPRESENTATION_CONTEXT('','3D')
);
#771=(
GEOMETRIC_REPRESENTATION_CONTEXT(3)
GLOBAL_UNCERTAINTY_ASSIGNED_CONTEXT((#769))
GLOBAL_UNIT_ASSIGNED_CONTEXT((#772,#774,#775))
REPRESENTATION_CONTEXT('','3D')
);
#772=(
LENGTH_UNIT()
NAMED_UNIT(*)
SI_UNIT(.MILLI.,.METRE.)
);
#773=(
LENGTH_UNIT()
NAMED_UNIT(*)
SI_UNIT($,.METRE.)
);
#774=(
NAMED_UNIT(*)
PLANE_ANGLE_UNIT()
SI_UNIT($,.RADIAN.)
);
#775=(
NAMED_UNIT(*)
SI_UNIT($,.STERADIAN.)
SOLID_ANGLE_UNIT()
);
#776=SHAPE_DEFINITION_REPRESENTATION(#777,#778);
#777=PRODUCT_DEFINITION_SHAPE('',$,#780);
#778=SHAPE_REPRESENTATION('',(#412),#770);
#779=PRODUCT_DEFINITION_CONTEXT('part definition',#784,'design');
#780=PRODUCT_DEFINITION('battery_LP402535','battery_LP402535 v0',#781,#779);
#781=PRODUCT_DEFINITION_FORMATION('',$,#786);
#782=PRODUCT_RELATED_PRODUCT_CATEGORY('battery_LP402535 v0',
'battery_LP402535 v0',(#786));
#783=APPLICATION_PROTOCOL_DEFINITION('international standard',
'automotive_design',2009,#784);
#784=APPLICATION_CONTEXT(
'Core Data for Automotive Mechanical Design Process');
#785=PRODUCT_CONTEXT('part definition',#784,'mechanical');
#786=PRODUCT('battery_LP402535','battery_LP402535 v0',$,(#785));
#787=PRESENTATION_STYLE_ASSIGNMENT((#789));
#788=PRESENTATION_STYLE_ASSIGNMENT((#790));
#789=SURFACE_STYLE_USAGE(.BOTH.,#791);
#790=SURFACE_STYLE_USAGE(.BOTH.,#792);
#791=SURFACE_SIDE_STYLE('',(#793));
#792=SURFACE_SIDE_STYLE('',(#794));
#793=SURFACE_STYLE_FILL_AREA(#795);
#794=SURFACE_STYLE_FILL_AREA(#796);
#795=FILL_AREA_STYLE('Steel - Satin',(#797));
#796=FILL_AREA_STYLE('Mirror',(#798));
#797=FILL_AREA_STYLE_COLOUR('Steel - Satin',#799);
#798=FILL_AREA_STYLE_COLOUR('Mirror',#800);
#799=COLOUR_RGB('Steel - Satin',0.627450980392157,0.627450980392157,0.627450980392157);
#800=COLOUR_RGB('Mirror',0.96078431372549,0.96078431372549,0.964705882352941);
ENDSEC;
END-ISO-10303-21;
